<?xml version="1.0" encoding="utf-8"?><svg xmlns="http://www.w3.org/2000/svg" xmlns:xlink="http://www.w3.org/1999/xlink"><symbol viewBox="0 0 21.44 24" id="almond" xmlns="http://www.w3.org/2000/svg"><g clip-path="url(#aclip0)"><path d="M22.08 7.227v-2.1a.706.706 0 00-.706-.707h-3.278a.706.706 0 00-.706.706v2.101a.706.706 0 00-.642.703v3.796a1.57 1.57 0 001.568 1.568h.713v7.52c0 .978-.796 1.774-1.774 1.774H9.538a1.776 1.776 0 01-1.774-1.774v-1.52h1.501c.39 0 .706-.316.706-.706v-2.29h.75a2.12 2.12 0 002.118-2.118V7.778c0-.952-.632-1.76-1.498-2.025v-2.42a.706.706 0 00-.706-.706h-.988V.706a.706.706 0 00-1.412 0v1.92H5.881V.707a.706.706 0 00-1.411 0v1.92h-.988a.706.706 0 00-.706.707v2.42a2.121 2.121 0 00-1.498 2.025v6.402a2.12 2.12 0 002.118 2.118h.75v2.29c0 .39.315.706.705.706h1.501v1.52A3.19 3.19 0 009.538 24h7.717a3.19 3.19 0 003.186-3.186v-7.52h.713a1.57 1.57 0 001.568-1.568V7.93a.706.706 0 00-.642-.703zM9.929 4.04v1.62H4.188V4.039h5.74zm-7.24 10.14V7.778c0-.389.317-.706.707-.706h7.325c.39 0 .706.317.706.706v6.402c0 .39-.317.706-.706.706H3.396a.707.707 0 01-.706-.706zm2.868 2.118H8.56v1.584H5.557v-1.584zM20.668 5.832v1.392h-1.866V5.832h1.866zm.642 5.894c0 .086-.07.156-.156.156h-2.838a.157.157 0 01-.156-.156v-3.09h3.15v3.09z"/><path d="M6.164 11.685h.716l-.312.724a.706.706 0 001.296.559l.737-1.71a.706.706 0 00-.648-.985h-.716l.312-.723a.706.706 0 00-1.296-.56l-.737 1.71a.706.706 0 00.648.985z"/></g><defs><clipPath id="aclip0"><path d="M0 0h24v24H0z"/></clipPath></defs></symbol><symbol viewBox="0 0 24 20.47" id="apitherapy" xmlns="http://www.w3.org/2000/svg"><path d="M24 1.781H0v17.446h14.764v3.027l2.624-1.282 2.624 1.282v-3.027H24V1.78zm-6.612 14.632a2.393 2.393 0 01-2.39-2.39 2.393 2.393 0 012.39-2.391 2.393 2.393 0 012.391 2.39 2.393 2.393 0 01-2.39 2.391zm0 2.994l-1.217.595v-2.384a3.776 3.776 0 002.435 0v2.384l-1.218-.595zm5.206-1.587h-2.582v-1.057a3.786 3.786 0 001.173-2.74 3.801 3.801 0 00-3.797-3.797 3.801 3.801 0 00-3.796 3.796c0 1.077.45 2.05 1.172 2.74v1.058H1.406V3.187h21.188V17.82z"/><path d="M2.814 7.41h18.372v1.407H2.814V7.41zm2.111-2.814h14.15v1.406H4.925V4.596zm-2.111 10.41h6.84v1.406h-6.84v-1.406zm0-2.816h6.84v1.407h-6.84v-1.406z"/></symbol><symbol viewBox="0 0 30.89 24.55" id="checkmark" xmlns="http://www.w3.org/2000/svg"><g clip-path="url(#cclip0)"><path d="M28.414 1.655C26.483-.552 23.172-.552 21.24 1.38L11.034 11.586 8.829 9.38c-1.931-1.93-5.242-1.93-7.173 0H1.38c-1.93 1.931-1.93 5.242 0 7.173l6.07 6.069C8.551 23.724 9.93 24 11.033 24c1.38 0 2.483-.552 3.587-1.38L28.414 8.828c1.93-1.93 1.93-5.24 0-7.172z"/></g><defs><clipPath id="cclip0"><path d="M0 0h30.069v24H0z"/></clipPath></defs></symbol><symbol viewBox="0 0 24.53 24.53" id="close" xmlns="http://www.w3.org/2000/svg"><g clip-path="url(#dclip0)"><path d="M16.267 12L23.2 5.067c1.067-1.067 1.067-2.667 0-3.6l-.533-.534C21.6-.133 20-.133 19.067.933L12 7.733 5.067.8C4-.267 2.4-.267 1.333.8L.8 1.333C-.267 2.4-.267 4 .8 4.933L7.733 12 .8 18.933C-.267 20-.267 21.6.8 22.533l.533.667c1.067 1.067 2.667 1.067 3.6 0L12 16.267l6.933 6.933c1.067 1.067 2.667 1.067 3.6 0l.534-.533c1.066-1.067 1.066-2.667 0-3.6L16.267 12z"/></g><defs><clipPath id="dclip0"><path d="M0 0h24v24H0z"/></clipPath></defs></symbol><symbol viewBox="0 0 24 24" id="f" xmlns="http://www.w3.org/2000/svg"><path d="M13.936 23.845c-.098.014-.202.033-.3.047.098-.018.197-.033.3-.047zm.239-.042c-.047.01-.094.019-.145.023.051-.004.098-.014.145-.023zm-.811.117zm.234-.028c-.056.01-.112.014-.168.019.051-.005.112-.01.168-.019zm.905-.154l-.126.028c.042-.01.084-.02.126-.028zm.811-.202l-.103.028c.033-.01.066-.019.103-.028zm-.248.066l-.113.028a.443.443 0 00.113-.028zm-.319.084l-.117.028a.537.537 0 01.117-.028zm-1.739.272l-.188.014.188-.014zM24 12c0-6.628-5.372-12-12-12S0 5.372 0 12s5.372 12 12 12c.07 0 .14 0 .21-.005v-9.337H9.634v-3.005h2.578V9.441c0-2.564 1.566-3.961 3.853-3.961 1.097 0 2.04.08 2.311.117v2.681H16.8c-1.242 0-1.486.59-1.486 1.458v1.912h2.977l-.39 3.005h-2.587v8.883C20.33 22.096 24 17.48 24 12zM12.792 23.972zm-.38.018c-.065 0-.13.005-.196.005.06 0 .126 0 .197-.004z"/></symbol><symbol viewBox="0 0 32 60" id="feat-1" xmlns="http://www.w3.org/2000/svg"><path d="M28.536 4H22V0H10v4H3.464A3.468 3.468 0 000 7.464v49.072A3.468 3.468 0 003.464 60h25.072A3.468 3.468 0 0032 56.536V7.464A3.468 3.468 0 0028.536 4zM2 19h28v12H2V19zm0 14h28v12H2V33zM12 2h8v2h-8V2zM3.464 6h25.072C29.344 6 30 6.656 30 7.464V17H2V7.464C2 6.656 2.656 6 3.464 6zm25.072 52H3.464A1.465 1.465 0 012 56.536V47h28v9.536c0 .808-.656 1.464-1.464 1.464z"/></symbol><symbol viewBox="0 0 52.03 46.15" id="feat-2" xmlns="http://www.w3.org/2000/svg"><path d="M28.404.413a3.029 3.029 0 00-3.09.044.929.929 0 00-.13.093l-13.55 11.463H1a1 1 0 00-1 1v19a1.002 1.002 0 001 1l10.61-.005 13.543 12.44c.05.046.104.086.161.12a3.055 3.055 0 001.582.446 3.07 3.07 0 001.508-.402A3.122 3.122 0 0030 42.857V3.169A3.125 3.125 0 0028.404.413zM28 42.857c0 .431-.217.81-.579 1.015a1.049 1.049 0 01-1 .026L13 31.569v-4.556a1 1 0 10-2 0v3.996l-9 .004v-17h9v4a1 1 0 102 0v-4.536l13.405-11.34c.461-.242.86-.07 1.016.018.362.205.579.584.579 1.014v39.688zM38.797 4.066a1.002 1.002 0 00-.643 1.895 17.48 17.48 0 0111.872 16.553 17.492 17.492 0 01-11.849 16.554 1 1 0 00.646 1.893 19.489 19.489 0 0013.202-18.446A19.478 19.478 0 0038.797 4.066z"/><path d="M43.026 22.513c0-5.972-4.009-11.302-9.749-12.962a1 1 0 00-.554 1.922c4.889 1.413 8.304 5.953 8.304 11.04 0 5.087-3.415 9.627-8.304 11.04a1 1 0 00.554 1.922c5.741-1.66 9.749-6.99 9.749-12.962z"/></symbol><symbol viewBox="0 0 56.42 60" id="feat-3" xmlns="http://www.w3.org/2000/svg"><path d="M30.634 37.989a3.558 3.558 0 002.606-1.459l9.363-12.944a1 1 0 00-1.397-1.397L28.26 31.555a3.557 3.557 0 00-1.456 2.604 3.56 3.56 0 001.033 2.797 3.554 3.554 0 002.797 1.033zm-1.836-3.674a1.56 1.56 0 01.637-1.142l7.897-5.713-5.711 7.895a1.565 1.565 0 01-2.371.187 1.564 1.564 0 01-.452-1.227z"/><path d="M53.034 19.564c-.01-.021-.01-.043-.021-.064-.012-.02-.031-.031-.044-.05a27.185 27.185 0 00-3.565-4.809l2.148-2.147 1.414 1.414 4.242-4.243-4.242-4.242-4.243 4.242 1.415 1.415-2.148 2.147a27.154 27.154 0 00-4.809-3.566c-.019-.013-.03-.032-.05-.044-.021-.012-.043-.011-.064-.022a26.81 26.81 0 00-10.273-3.404V5h1.5c1.379 0 2.5-1.121 2.5-2.5S35.672 0 34.293 0h-9a2.502 2.502 0 00-2.5 2.5c0 1.379 1.121 2.5 2.5 2.5h1.5v1.156c-1.08.115-2.158.291-3.224.535a1 1 0 10.447 1.949 25.43 25.43 0 012.78-.477l1.073-.083c.328-.025.63-.043.924-.057V10a1 1 0 102 0V8.03a24.805 24.805 0 0110.456 2.845l-.986 1.707a1 1 0 001.732 1l.983-1.703a25.194 25.194 0 017.772 7.772l-1.703.983a1 1 0 001.002 1.732l1.707-.986a24.82 24.82 0 012.849 10.619H52.63a1 1 0 100 2h1.975a24.82 24.82 0 01-2.849 10.619l-1.707-.986a1 1 0 00-1 1.732l1.703.983a25.194 25.194 0 01-7.772 7.772l-.983-1.703a.998.998 0 00-1.366-.366.999.999 0 00-.366 1.366l.986 1.707a24.805 24.805 0 01-10.456 2.845V56a1 1 0 10-2 0v1.976a25.235 25.235 0 01-4.776-.617.996.996 0 00-1.198.751 1 1 0 00.751 1.198c1.996.46 4.035.692 6.058.692.049 0 .096-.003.145-.004.007 0 .012.004.018.004.008 0 .015-.005.023-.005a26.825 26.825 0 0013.219-3.573c.031-.014.064-.021.094-.039.02-.012.031-.031.05-.044a27.197 27.197 0 009.773-9.761c.019-.027.043-.048.06-.078.012-.021.011-.043.021-.064A26.808 26.808 0 0056.63 33c0-4.89-1.313-9.476-3.596-13.436zm-.069-11.313l1.414 1.414-1.414 1.415-1.415-1.415 1.415-1.414zm-24.172-2.23V3h-3.5a.501.501 0 01-.5-.5c0-.275.225-.5.5-.5h9c.275 0 .5.225.5.5s-.225.5-.5.5h-3.5v3.021c-.348-.014-.68-.021-1-.021l-.088.002L29.63 6c-.164 0-.328.011-.492.014-.116.003-.225.002-.345.007zm-8 7.979h-5a1 1 0 100 2h5a1 1 0 100-2zm0 7h-10a1 1 0 100 2h10a1 1 0 100-2zm0 7h-15a1 1 0 100 2h15a1 1 0 100-2zm0 7h-19a1 1 0 100 2h19a1 1 0 100-2zm0 7h-13a1 1 0 100 2h13a1 1 0 100-2zm0 7h-7a1 1 0 100 2h7a1 1 0 100-2z"/></symbol><symbol viewBox="0 0 26.17 24" id="gamburger" xmlns="http://www.w3.org/2000/svg"><g clip-path="url(#iclip0)"><path d="M24 0H2.063C.87 0 0 .869 0 2.063v.326c0 1.086.869 1.955 2.063 1.955H24.11a2.062 2.062 0 002.063-2.063v-.218C26.063.87 25.195 0 24 0zm0 9.774H2.063A2.062 2.062 0 000 11.837v.326c0 1.086.869 2.063 2.063 2.063H24.11a2.062 2.062 0 002.063-2.063v-.326c-.109-1.086-.977-2.063-2.172-2.063zm0 9.773H2.063A2.062 2.062 0 000 21.611v.326C0 23.023.869 24 2.063 24H24.11a2.062 2.062 0 002.063-2.063v-.326c-.109-1.086-.977-2.064-2.172-2.064z"/></g><defs><clipPath id="iclip0"><path d="M0 0h26.063v24H0z"/></clipPath></defs></symbol><symbol viewBox="0 0 42 42" id="gear" xmlns="http://www.w3.org/2000/svg"><g clip-path="url(#jclip0)"><path d="M21 10.111c-6.004 0-10.889 4.884-10.889 10.889 0 6.004 4.885 10.889 10.889 10.889S31.889 27.004 31.889 21c0-6.005-4.885-10.889-10.889-10.889zm0 20.222c-5.147 0-9.333-4.186-9.333-9.333s4.186-9.333 9.333-9.333 9.333 4.186 9.333 9.333c0 5.146-4.186 9.333-9.333 9.333z"/><path d="M39.838 16.333h-1.57c-.4-1.487-.99-2.91-1.758-4.244l1.11-1.11a2.15 2.15 0 00.633-1.528c0-.578-.225-1.121-.633-1.53L34.078 4.38c-.816-.816-2.24-.818-3.059 0L29.91 5.489a17.776 17.776 0 00-4.243-1.757v-1.57C25.667.97 24.697 0 23.504 0h-5.008c-1.193 0-2.163.97-2.163 2.162v1.57c-1.486.4-2.909.99-4.244 1.758l-1.11-1.11c-.817-.818-2.241-.816-3.058 0L4.38 7.922a2.15 2.15 0 00-.633 1.53c0 .577.224 1.12.633 1.529l1.109 1.109a17.705 17.705 0 00-1.757 4.243h-1.57C.97 16.333 0 17.303 0 18.496v5.008c0 1.193.97 2.163 2.162 2.163h1.57c.4 1.486.99 2.909 1.758 4.244l-1.11 1.11a2.15 2.15 0 00-.633 1.528c0 .578.225 1.121.633 1.53l3.542 3.541c.816.818 2.241.819 3.059 0l1.109-1.109a17.798 17.798 0 004.244 1.758v1.57c0 1.192.97 2.162 2.162 2.162h5.008c1.193 0 2.163-.97 2.163-2.162v-1.57c1.486-.4 2.909-.99 4.244-1.758l1.11 1.11c.817.818 2.24.816 3.058 0l3.541-3.542a2.15 2.15 0 00.633-1.53 2.15 2.15 0 00-.633-1.529l-1.109-1.109a17.798 17.798 0 001.758-4.244h1.57c1.192 0 2.162-.97 2.162-2.163v-5.008a2.166 2.166 0 00-2.163-2.163zm.606 7.171a.607.607 0 01-.606.607h-2.794l-.14.601a16.245 16.245 0 01-2.032 4.909l-.327.524 1.975 1.975a.607.607 0 010 .859l-3.541 3.54a.607.607 0 01-.86 0l-1.974-1.974-.524.327a16.208 16.208 0 01-4.909 2.032l-.6.14v2.794a.607.607 0 01-.608.606h-5.008a.607.607 0 01-.607-.606v-2.794l-.601-.14a16.245 16.245 0 01-4.909-2.032l-.524-.327L9.88 36.52a.607.607 0 01-.859 0l-3.54-3.541a.607.607 0 010-.86l1.974-1.974-.327-.524a16.208 16.208 0 01-2.032-4.909l-.14-.6H2.162a.607.607 0 01-.606-.608v-5.008c0-.335.272-.607.606-.607h2.794l.14-.601a16.228 16.228 0 012.032-4.909l.327-.524L5.48 9.88a.607.607 0 010-.859l3.541-3.54a.607.607 0 01.86 0l1.974 1.974.524-.327a16.208 16.208 0 014.909-2.032l.6-.14V2.162c0-.334.273-.606.608-.606h5.008c.335 0 .607.272.607.606v2.794l.601.14a16.245 16.245 0 014.909 2.032l.524.327L32.12 5.48a.607.607 0 01.859 0l3.54 3.541a.607.607 0 010 .86l-1.974 1.974.327.524a16.19 16.19 0 012.032 4.909l.14.6h2.794c.334 0 .606.273.606.608v5.008z"/><path d="M21 13.222c-4.289 0-7.778 3.49-7.778 7.778 0 4.289 3.49 7.778 7.778 7.778 4.289 0 7.778-3.49 7.778-7.778 0-4.289-3.49-7.778-7.778-7.778zm0 14A6.23 6.23 0 0114.778 21 6.23 6.23 0 0121 14.778 6.23 6.23 0 0127.222 21 6.23 6.23 0 0121 27.222z"/></g><defs><clipPath id="jclip0"><path d="M0 0h42v42H0z"/></clipPath></defs></symbol><symbol viewBox="0 0 12.97 24.12" id="grape" xmlns="http://www.w3.org/2000/svg"><g clip-path="url(#kclip0)"><path d="M18.205 17.521L13.164 12l5.041-5.52a.86.86 0 00-.089-1.244L11.987.196a.858.858 0 00-1.405.663v8.315L7.064 5.32a.86.86 0 00-1.269 1.16l4.787 5.242v.556l-4.787 5.243a.859.859 0 101.269 1.159l3.518-3.853v8.314a.86.86 0 001.405.664l6.13-5.04a.86.86 0 00.088-1.244zM12.301 2.678l4.025 3.31-4.025 4.409V2.678zm0 18.644v-7.718l4.025 4.408-4.025 3.31z"/></g><defs><clipPath id="kclip0"><path d="M0 0h24v24H0z"/></clipPath></defs></symbol><symbol viewBox="0 0 24 24" id="in" xmlns="http://www.w3.org/2000/svg"><path d="M14.297 12A2.295 2.295 0 0112 14.297 2.295 2.295 0 019.703 12 2.295 2.295 0 0112 9.703 2.295 2.295 0 0114.297 12z"/><path d="M17.372 7.936a2.13 2.13 0 00-.516-.792 2.13 2.13 0 00-.792-.516c-.244-.094-.61-.206-1.28-.239-.726-.033-.947-.042-2.784-.042-1.842 0-2.058.005-2.784.042-.67.033-1.036.145-1.28.24-.3.112-.572.285-.792.515-.23.22-.403.492-.516.792-.094.244-.206.61-.239 1.28-.033.726-.042.942-.042 2.784 0 1.838.01 2.058.042 2.784.033.67.14 1.036.24 1.28.112.3.285.572.515.792.22.23.492.403.792.516.244.094.61.206 1.28.239.726.033.942.042 2.784.042 1.842 0 2.058-.005 2.784-.042.67-.033 1.036-.14 1.28-.24a2.273 2.273 0 001.308-1.307c.094-.244.206-.61.239-1.28.033-.726.042-.947.042-2.784 0-1.842-.005-2.058-.042-2.784-.033-.67-.145-1.036-.24-1.28zM12 15.539a3.539 3.539 0 110-7.078 3.539 3.539 0 010 7.078zm3.68-6.389a.826.826 0 010-1.65.826.826 0 010 1.65z"/><path d="M12 0C5.372 0 0 5.372 0 12s5.372 12 12 12 12-5.372 12-12S18.628 0 12 0zm6.848 14.84c-.032.732-.15 1.233-.318 1.674a3.514 3.514 0 01-2.016 2.016c-.436.168-.937.286-1.673.318-.736.033-.97.043-2.841.043-1.87 0-2.105-.01-2.84-.043-.732-.032-1.233-.15-1.674-.318a3.355 3.355 0 01-1.219-.797 3.355 3.355 0 01-.797-1.219c-.168-.436-.286-.937-.318-1.673-.033-.736-.043-.97-.043-2.841 0-1.87.01-2.105.043-2.84.032-.732.15-1.233.318-1.674.174-.46.446-.877.797-1.219.342-.351.76-.623 1.219-.797.44-.168.937-.286 1.673-.318.736-.033.97-.043 2.841-.043 1.87 0 2.105.01 2.84.043.732.032 1.233.15 1.674.318.46.174.877.446 1.219.797.351.342.623.76.797 1.219.168.44.286.937.318 1.673.033.736.043.97.043 2.841 0 1.87-.01 2.105-.043 2.84z"/></symbol><symbol viewBox="0 0 45.6 42.8" id="logo-svg" xmlns="http://www.w3.org/2000/svg"><path d="M20 26c3.3 0 6-2.7 6-6s-2.7-6-6-6-6 2.7-6 6 2.7 6 6 6zm0-26c-2 0-4.1.3-6 .9V12c4.4-3.3 10.7-2.4 14 2 3.3 4.4 2.4 10.7-2 14-4.4 3.3-10.7 2.4-14-2-1.3-1.7-2-3.8-2-6V2.7C.4 8.2-2.8 20.4 2.7 30c5.5 9.6 17.7 12.8 27.3 7.3 9.6-5.5 12.8-17.7 7.3-27.3C33.8 3.8 27.2 0 20 0z"/></symbol><symbol viewBox="0 0 50 49.9" id="main-1" xmlns="http://www.w3.org/2000/svg"><g clip-path="url(#nclip0)"><path d="M15.97 1C7.717 1 1 8.276 1 17.26a12.052 12.052 0 001.658 5.917c.498.85.925 1.741 1.275 2.662.233.677.01 1.427-.555 1.866a4.117 4.117 0 00-1.546 3.237 4.159 4.159 0 001.824 3.453c.411.28.661.74.67 1.238v6.952c0 4.587 3.358 8.318 7.486 8.318s7.486-3.731 7.486-8.318a11.696 11.696 0 014.075-8.916 21.067 21.067 0 007.569-16.45C30.942 8.275 24.226 1 15.97 1zm6.322 31.406a13.354 13.354 0 00-4.658 10.18c0 3.668-2.612 6.653-5.822 6.653S5.99 46.254 5.99 42.585v-6.952a3.22 3.22 0 00-1.36-2.586 2.505 2.505 0 01-1.135-2.105 2.461 2.461 0 01.948-1.96 3.327 3.327 0 001.053-3.715 19.352 19.352 0 00-1.395-2.911 10.431 10.431 0 01-1.438-5.138c0-8.025 5.97-14.555 13.308-14.555 7.337 0 13.307 6.53 13.307 14.555a19.454 19.454 0 01-6.986 15.188z"/><path d="M15.97 5.159c-4.634 0-8.587 3.286-10.121 7.88-.011.028-.018.055-.027.084a13.307 13.307 0 00-.665 4.134c0 .998 0 4.05 1.907 5.957a.832.832 0 001.176-1.176 5.088 5.088 0 01-1.26-2.72c.135-.008.267-.019.406-.019 3.817-.001 6.921 3.492 6.921 7.783 0 .399-.019.773-.05 1.142-.414.442-.854.86-1.319 1.248a9.911 9.911 0 00-3.62 8.123.832.832 0 001.662 0 8.256 8.256 0 013.033-6.85 11.406 11.406 0 004.453-9.485c0-5.206-3.918-9.448-8.733-9.448a8.044 8.044 0 00-1.646.175 9.007 9.007 0 017.884-5.165c5.044 0 9.148 4.68 9.148 10.433a15.163 15.163 0 01-5.357 11.786c-.115.099-.242.206-.38.321-1.655 1.376-5.098 4.242-5.901 11.469a.832.832 0 00.735.914c.03.005.06.008.091.009.424 0 .78-.32.826-.74.73-6.563 3.71-9.042 5.312-10.374.147-.123.282-.236.404-.34a16.786 16.786 0 005.934-13.045c0-6.67-4.85-12.096-10.812-12.096zm-6.237 8.317c3.898 0 7.07 3.493 7.07 7.784a10.624 10.624 0 01-.915 4.575c-.559-4.625-4.153-8.2-8.5-8.2-.193 0-.377.013-.563.027v-.407c0-1.112.16-2.219.473-3.286a6.333 6.333 0 012.435-.493zm32.852 6.654a9.8 9.8 0 013.087-6.904.832.832 0 10-1.183-1.164 11.424 11.424 0 00-3.567 8.067 11.424 11.424 0 003.567 8.068.832.832 0 101.183-1.165 9.8 9.8 0 01-3.087-6.903z"/><path d="M48.129 15.35a.832.832 0 00-1.175.068 6.86 6.86 0 000 9.423.832.832 0 101.243-1.106 5.2 5.2 0 010-7.211.832.832 0 00-.068-1.175z"/><path d="M50.689 17.91a.832.832 0 00-1.175-.062 2.904 2.904 0 000 4.563.832.832 0 101.113-1.236 1.485 1.485 0 01-.556-1.046c.032-.41.234-.789.556-1.045a.832.832 0 00.062-1.174zm-12.262 2.22c0-3.66 1.64-7.197 4.74-10.217a.833.833 0 10-1.164-1.191c-3.426 3.34-5.24 7.284-5.24 11.407s1.814 8.068 5.24 11.408a.833.833 0 101.165-1.191c-3.102-3.02-4.741-6.557-4.741-10.217z"/><path d="M34.268 20.13c0-4.57 1.932-8.971 5.587-12.726a.833.833 0 00-1.193-1.164c-3.962 4.075-6.057 8.878-6.057 13.89 0 5.01 2.095 9.814 6.057 13.889a.833.833 0 101.193-1.165C36.2 29.1 34.268 24.7 34.268 20.13z"/></g><defs><clipPath id="nclip0"><path transform="translate(1 1)" d="M0 0h50v49.903H0z"/></clipPath></defs></symbol><symbol viewBox="0 0 18.29 37.85" id="main-2" xmlns="http://www.w3.org/2000/svg"><g clip-path="url(#oclip0)"><path d="M27.031 4.73H13.969a2.618 2.618 0 00-2.615 2.616v29.462a2.618 2.618 0 002.615 2.615h13.062a2.618 2.618 0 002.615-2.615V7.346a2.618 2.618 0 00-2.615-2.615zm1.354 32.078c0 .746-.608 1.354-1.354 1.354H13.969a1.355 1.355 0 01-1.354-1.354V7.346c0-.746.608-1.354 1.354-1.354h13.062c.746 0 1.354.608 1.354 1.354v29.462z"/><path d="M23.97 1.577h-6.94a.63.63 0 00-.63.63v3.155c0 .348.283.63.63.63h6.94a.63.63 0 00.63-.63V2.208a.63.63 0 00-.63-.631zm-.631 3.154h-5.677V2.838h5.677v1.893zM25.132 18.9a.63.63 0 00-.532-.292h-3.785V12.93a.63.63 0 00-1.202-.267l-4.415 9.461a.63.63 0 00.571.898h3.785V28.7a.63.63 0 001.202.267l4.416-9.462a.631.631 0 00-.04-.605zm-5.578 2.862H16.76l2.794-5.988v5.988zm1.261 4.095v-5.988h2.794l-2.794 5.988z"/></g><defs><clipPath id="oclip0"><path transform="translate(1.577 1.577)" d="M0 0h37.846v37.846H0z"/></clipPath></defs></symbol><symbol viewBox="0 0 21.45 37.85" id="main-3" xmlns="http://www.w3.org/2000/svg"><g clip-path="url(#pclip0)"><path d="M30.592 9.777H28.7V3.469c0-1.072-.82-1.892-1.892-1.892-1.073 0-1.893.82-1.893 1.892v6.308h-8.83V3.469c0-1.072-.82-1.892-1.893-1.892-1.072 0-1.892.82-1.892 1.892v6.308h-1.892c-.379 0-.631.252-.631.63v4.794a12.58 12.58 0 003.343 8.516c1.892 2.145 2.965 4.92 2.965 7.758v1.64a3.123 3.123 0 003.154 3.154h.63v2.523c0 .379.253.631.631.631s.63-.252.63-.63v-2.524h.632a3.123 3.123 0 003.153-3.154v-1.577c0-2.901 1.01-5.613 2.965-7.758a12.737 12.737 0 003.343-8.578v-4.794c0-.379-.252-.631-.63-.631zm-4.415-6.308c0-.378.252-.63.63-.63.38 0 .631.252.631.63v6.308h-1.261V3.469zm-12.615 0c0-.315.252-.63.63-.63.379 0 .631.252.631.63v6.308h-1.262V3.469zm16.4 11.67c0 2.901-1.01 5.613-2.965 7.758a12.737 12.737 0 00-3.343 8.578v1.64c0 1.073-.82 1.893-1.892 1.893h-2.524a1.858 1.858 0 01-1.892-1.893v-1.577c0-3.153-1.198-6.244-3.343-8.578-1.892-2.145-2.964-4.92-2.964-7.758v-4.163h18.923v4.1z"/><path d="M23.023 17.977h-3.532l3.343-3.343a.61.61 0 000-.883.61.61 0 00-.883 0l-4.416 4.415c-.189.19-.252.442-.126.694.063.252.316.378.568.378h3.532l-3.343 3.344a.61.61 0 000 .883.573.573 0 00.442.189.57.57 0 00.441-.19l4.416-4.415c.189-.189.252-.441.126-.694-.063-.252-.316-.378-.568-.378z"/></g><defs><clipPath id="pclip0"><path transform="translate(1.577 1.577)" d="M0 0h37.846v37.846H0z"/></clipPath></defs></symbol><symbol viewBox="0 0 76 95" id="marker" xmlns="http://www.w3.org/2000/svg"><path d="M38 0C24.783 0 0 10 0 38.333 0 66.667 38 95 38 95s38-28.333 38-56.667C76 10 51.217 0 38 0z"/><path d="M38 44c3.3 0 6-2.7 6-6s-2.7-6-6-6-6 2.7-6 6 2.7 6 6 6zm0-26c-2 0-4.1.3-6 .9V30c4.4-3.3 10.7-2.4 14 2 3.3 4.4 2.4 10.7-2 14-4.4 3.3-10.7 2.4-14-2-1.3-1.7-2-3.8-2-6V20.7c-9.6 5.5-12.8 17.7-7.3 27.3 5.5 9.6 17.7 12.8 27.3 7.3 9.6-5.5 12.8-17.7 7.3-27.3-3.5-6.2-10.1-10-17.3-10z"/></symbol><symbol viewBox="0 0 24 24" id="nut" xmlns="http://www.w3.org/2000/svg"><path d="M5.25 4.5A5.256 5.256 0 000 9.75c0 2.694 4.212 7.465 4.692 8.001A.754.754 0 005.25 18a.754.754 0 00.558-.249c.48-.536 4.692-5.307 4.692-8.001A5.256 5.256 0 005.25 4.5zm0 11.605C3.612 14.163 1.5 11.181 1.5 9.75A3.755 3.755 0 015.25 6 3.755 3.755 0 019 9.75c0 1.43-2.112 4.413-3.75 6.355z"/><path d="M5.25 7.5C4.01 7.5 3 8.51 3 9.75S4.01 12 5.25 12 7.5 10.99 7.5 9.75 6.49 7.5 5.25 7.5zm0 3a.75.75 0 110-1.5.75.75 0 010 1.5zm18-10.5h-6a.75.75 0 00-.75.75v7.5a.75.75 0 001.5 0V6h5.25a.75.75 0 00.75-.75V.75a.75.75 0 00-.75-.75zm-.75 4.5H18v-3h4.5v3zm-1.5 12h-7.5c-.826 0-1.5-.674-1.5-1.5s.674-1.5 1.5-1.5h1.638c.31.871 1.135 1.5 2.112 1.5 1.24 0 2.25-1.01 2.25-2.25s-1.01-2.25-2.25-2.25c-.977 0-1.802.629-2.112 1.5H13.5c-1.655 0-3 1.345-3 3 0 1.654 1.345 3 3 3H21c.826 0 1.5.674 1.5 1.5S21.826 21 21 21H7.362a2.246 2.246 0 00-2.112-1.5C4.01 19.5 3 20.51 3 21.75S4.01 24 5.25 24c.976 0 1.801-.628 2.112-1.5H21c1.654 0 3-1.346 3-3s-1.346-3-3-3zM17.25 12a.75.75 0 110 1.5.75.75 0 010-1.5zm-12 10.5a.75.75 0 110-1.5.75.75 0 010 1.5z"/></symbol><symbol viewBox="0 0 24.01 24.01" id="phone" xmlns="http://www.w3.org/2000/svg"><g clip-path="url(#sclip0)"><path d="M23.948 18.596c-.068-.205-.5-.506-1.295-.904a39.775 39.775 0 00-.92-.511 85.168 85.168 0 01-1.083-.597 36.067 36.067 0 01-.912-.528 22.128 22.128 0 00-.426-.298 4.786 4.786 0 00-.605-.367 1.117 1.117 0 00-.486-.12c-.227 0-.51.163-.852.487-.34.324-.653.676-.937 1.057-.284.38-.585.732-.903 1.056-.318.324-.58.486-.784.486a1.16 1.16 0 01-.384-.085 3.991 3.991 0 01-.35-.144 6.374 6.374 0 01-.408-.24 15.886 15.886 0 00-.324-.196c-1.557-.863-2.892-1.852-4.006-2.965-1.113-1.114-2.102-2.45-2.966-4.006a9.956 9.956 0 00-.196-.324 6.125 6.125 0 01-.239-.41 3.692 3.692 0 01-.144-.349 1.153 1.153 0 01-.086-.383c0-.205.162-.466.486-.784.324-.318.677-.62 1.057-.903.38-.284.733-.597 1.057-.938.324-.34.486-.625.486-.852 0-.159-.04-.32-.12-.486a4.738 4.738 0 00-.366-.605c-.165-.238-.264-.38-.299-.426-.17-.284-.346-.588-.528-.912-.182-.324-.38-.685-.597-1.082a40.51 40.51 0 00-.51-.92C5.91.55 5.607.119 5.403.05A.955.955 0 005.046 0c-.307 0-.707.057-1.202.17-.494.114-.883.233-1.167.358-.569.239-1.17.932-1.807 2.08C.29 3.676 0 4.733 0 5.778c0 .307.02.605.06.895.04.29.111.616.213.98.103.364.185.634.247.81.063.176.18.49.35.946.17.454.272.732.307.835a15.44 15.44 0 001.414 2.983c.897 1.454 2.122 2.957 3.673 4.508 1.551 1.551 3.054 2.776 4.509 3.674.875.545 1.87 1.016 2.983 1.414.102.034.38.136.835.307.454.17.77.287.946.35.176.062.446.145.809.247.364.102.69.174.98.214.29.039.588.06.895.06 1.045 0 2.102-.29 3.17-.87 1.148-.637 1.841-1.239 2.08-1.807.125-.284.244-.673.358-1.168.114-.494.17-.894.17-1.201a.951.951 0 00-.05-.36z"/></g><defs><clipPath id="sclip0"><path d="M0 0h24v24H0z"/></clipPath></defs></symbol><symbol viewBox="0 0 24 24" id="tv" xmlns="http://www.w3.org/2000/svg"><path d="M12 24c6.628 0 12-5.372 12-12S18.628 0 12 0 0 5.372 0 12s5.372 12 12 12zM5.49 11.742L17.061 7.28c.54-.192 1.008.13.83.942l-1.969 9.281c-.145.656-.539.82-1.082.506l-3-2.212-1.449 1.392c-.16.16-.295.295-.604.295l.21-3.051 5.565-5.02c.243-.211-.057-.333-.376-.122l-6.871 4.326-2.963-.923c-.642-.207-.656-.642.136-.952z"/></symbol><symbol viewBox="0 0 24 24" id="vk" xmlns="http://www.w3.org/2000/svg"><path d="M12 0C5.374 0 0 5.374 0 12s5.374 12 12 12 12-5.374 12-12S18.626 0 12 0zm6.086 13.3c.564.54 1.153 1.056 1.644 1.67.22.27.442.54.589.858.22.442.025.933-.368.957h-2.454c-.638.05-1.129-.196-1.57-.638a20.431 20.431 0 01-.982-1.08 1.694 1.694 0 00-.442-.392c-.344-.221-.638-.147-.81.196-.196.368-.245.76-.27 1.153-.024.59-.196.737-.785.761-1.252.05-2.43-.122-3.51-.76-.956-.565-1.717-1.326-2.355-2.209-1.276-1.718-2.233-3.607-3.117-5.546-.196-.442-.049-.663.442-.687a39.29 39.29 0 012.405 0c.32 0 .54.196.663.49.441 1.056.957 2.086 1.62 3.019.171.245.367.49.613.687.294.197.49.123.638-.196.073-.197.122-.417.147-.638a8.322 8.322 0 00-.049-2.209c-.074-.49-.319-.785-.785-.883-.246-.05-.197-.123-.098-.27.196-.221.392-.368.76-.368h2.773c.442.098.54.27.59.711v3.092c0 .172.073.688.392.786.245.073.417-.123.564-.27.663-.712 1.13-1.546 1.57-2.405.197-.393.344-.785.516-1.178.123-.295.295-.442.638-.442h2.675a.92.92 0 01.245.025c.442.073.565.27.442.711-.22.688-.638 1.276-1.055 1.84-.442.614-.933 1.203-1.374 1.841-.442.59-.417.884.098 1.375z"/></symbol><symbol viewBox="0 0 12.83 16.7" id="volume" xmlns="http://www.w3.org/2000/svg"><path d="M11.188 1.174L5.016 6.082a3.132 3.132 0 00-1.497-.372A3.158 3.158 0 00.36 8.87a3.158 3.158 0 003.16 3.161c.54 0 1.05-.139 1.497-.371l6.172 4.917c.809.642 1.999.065 1.999-.967V2.131c0-1.032-1.19-1.608-1.999-.957z"/></symbol><symbol viewBox="0 0 23.39 24" id="washing-powder" xmlns="http://www.w3.org/2000/svg"><path d="M20.337 6.4h-5.363a3.885 3.885 0 00.906-2.497A3.907 3.907 0 0011.977 0a3.907 3.907 0 00-3.903 3.903c0 .949.34 1.82.906 2.497H3.617L.28 24h23.392L20.337 6.4zm-8.36-4.994a2.5 2.5 0 012.497 2.497A2.5 2.5 0 0111.977 6.4 2.5 2.5 0 019.48 3.903a2.5 2.5 0 012.497-2.497zm-7.196 6.4h14.392l2.802 14.788H1.979L4.781 7.806z"/><path d="M12.005 12.403H10.41L8.178 14.63v-2.228H7.03v5.62h1.147v-1.921l.578-.564 1.748 2.485h1.481l-2.41-3.273 2.43-2.347z"/><path d="M14.275 16h1.515v.617a2.339 2.339 0 01-.494.26 2.065 2.065 0 01-.778.153c-.303 0-.592-.067-.86-.2a1.28 1.28 0 01-.588-.587c-.14-.275-.212-.628-.212-1.048 0-.34.06-.66.18-.948.066-.16.162-.309.283-.444.115-.128.273-.234.467-.315.198-.083.44-.125.72-.125.227 0 .435.04.619.117a.96.96 0 01.398.288c.097.127.181.31.25.543l.064.22 1.056-.29-.056-.222c-.097-.377-.243-.69-.434-.93a1.913 1.913 0 00-.804-.576 2.937 2.937 0 00-1.097-.198c-.55 0-1.045.116-1.47.344a2.33 2.33 0 00-1.006 1.072 3.434 3.434 0 00-.338 1.506c0 .542.115 1.04.342 1.481.233.452.581.802 1.036 1.04.446.234.947.353 1.488.353.402 0 .799-.073 1.18-.218a4.099 4.099 0 001.1-.638l.087-.07v-2.258l-2.648.004v1.07z"/></symbol></svg>